<?xml version="1.0" encoding="utf-8"?>
<!-- Generator: Adobe Illustrator 18.1.0, SVG Export Plug-In . SVG Version: 6.00 Build 0)  -->
<svg version="1.1" id="Layer_1" xmlns="http://www.w3.org/2000/svg" xmlns:xlink="http://www.w3.org/1999/xlink" x="0px" y="0px"
	 viewBox="0 0 277 275" enable-background="new 0 0 277 275" xml:space="preserve">
<g>
	<path fill="#6E6E6E" d="M125.2,6.4c5.6,2.6,10.9,5.7,15.8,9.5c1.1,0.9,2.3,1.8,3.3,2.8c3.2,3.3,6.6,6.5,9.6,10
		c5.4,6.3,9.7,13.4,13.3,20.8c3.9,7.9,6.8,16.1,9.1,24.9c2.4-2.2,3.9-4.9,5-7.8c1.8-5,2-10.1,1.1-15.2c-0.6-3.5-1.5-6.9-2.3-10.7
		c3.2,3.3,6.5,6.3,9.4,9.6c3.2,3.6,6.2,7.3,9,11.2c2.8,3.9,5.6,8,7.8,12.3c3.2,6.3,6.3,12.7,8.7,19.3c1.8,5,3,10.4,3.8,15.7
		c0.7,4.9,0.8,9.8,0.8,14.8c-0.1,7-1.7,13.8-4.2,20.3c-2.8,7.6-6.9,14.5-12.1,20.7c-4.6,5.5-9.8,10.6-15.5,15.1
		c-5.9,4.7-12.3,8.7-18.7,12.7c-0.2,0.1-0.5,0.2-1.1,0.4c9.3-19.2,10.7-38.9,5.6-59.2c-5.1-20.3-15.9-36.9-32.8-49.8
		c1.2,14.7-1.5,28.4-8.3,41.1c-1.9,3.6-4.4,6.8-7,10.1c1.4-9.4,0-18.1-4.9-26.8c-0.4,1.4-0.6,2.4-0.9,3.4c-0.3,1-0.7,2-1,3
		c-2,6.9-5,13.3-8.7,19.4c-3.6,5.9-7.7,11.5-10.2,17.9c-1.4,3.7-2.3,7.4-2.6,11.4c-0.8,9.6,1.9,18.4,5.7,27.1
		c0.3,0.6,0.5,1.3,0.9,2.4c-0.9-0.5-1.4-0.8-1.8-1c-7.8-4.3-15.2-9.2-22-14.9c-7.2-6-13.5-12.9-17.6-21.6c-2.3-4.9-3.7-10-4.2-15.4
		c-1.1-10.7,0.7-21,4.6-30.9c2.8-7.2,6.5-14,9.8-21c3-6.5,6.1-13,7.7-20.1c0.5-2,0.6-4.1,0.9-6.2c0.1-0.4,0.1-0.9,0.3-1.6
		c5.8,9.5,7.3,19.6,7.8,30.5c1.1-1.2,2-2.1,2.7-3.1c4.7-6.6,9.6-13.2,14.1-19.9c6.8-10.2,12.3-21,15.7-32.8c1.3-4.5,2.2-9.3,2.7-14
		c0.5-4.9,0.1-9.8,0.1-14.8C124.5,6.4,124.9,6.4,125.2,6.4z"/>
	<path fill="#6E6E6E" d="M205.2,244.4c-29.3-0.2-58.6-0.2-88,0c-6.1,0-7.5-2.8-6.7-7.4c1.6-9.1,3.6-18.1,5.8-27
		c1.4-5.7,6.1-6.3,11.2-6.3c18.8,0,37.5-0.2,56.3-0.4c8.3,0.1,11.7,2.8,14.5,10.2c3.2,8.3,6.9,16.3,9.9,24.5
		C209.5,241.5,210.1,243.8,205.2,244.4z"/>
	<path fill="#6E6E6E" d="M172.8,268.6c-12.7,0.1-25.4,0.1-38.1,0c-14.3,0-15.1-0.3-20.6-12.9c-0.4-0.8-0.3-3.3,1.5-3.3
		c16.8,0,62.1,0,81.9,0c4.2,0,3.3,2.1,1.2,3.7c-5.5,4.1-10.6,6.7-16.3,10.1C179,268.4,177.2,268.6,172.8,268.6z"/>
	<path fill="#6E6E6E" d="M72.6,252.5c9.8,0,18,0.1,28.1,0.1c7.6,0,9,9.7,10.8,15.3c-6.8,0.7-12.4,1.1-18-0.8
		C91,266.2,72.5,257.8,72.6,252.5z"/>
	<path fill="#6E6E6E" d="M95.2,244.8c-1.8,0.1-20.9,0.4-25.9-1.5c-10.7-3.7,1.1-25.6,8-36c2.4-3.6,10-3.7,17.5-3.6
		c3.4,0,6.8,0,9.7,0c5.1,0,6.5,0,4.7,9.6c-1.5,7.8-4,17.8-6.6,26.3C101.1,244.8,97.6,244.7,95.2,244.8z"/>
</g>
</svg>
