<?xml version="1.0" encoding="utf-8"?>
<!-- Generator: Adobe Illustrator 18.1.0, SVG Export Plug-In . SVG Version: 6.00 Build 0)  -->
<svg version="1.1" id="Layer_1" xmlns="http://www.w3.org/2000/svg" xmlns:xlink="http://www.w3.org/1999/xlink" x="0px" y="0px"
	 viewBox="0 0 368.1 71.7" enable-background="new 0 0 368.1 71.7" xml:space="preserve">
<g>
	<path fill="#BFBFBF" d="M87.3,32.1c0-4-1-8.5-1.8-10.9c-3.4,2.3-4.4,2.7-7.2,3.7c-1,0.4-2.3,0.8-4,1.5c-0.9,0.3-1.8,0.7-2.7,1
		c-1.4,0.5-2.8,1.1-4.1,1.6c-6.6,2.7-10.7,7.2-12.2,13.4c-1,4-0.8,15.6-0.8,20.5c0,0.2,0,0.4,0,0.6c0.3-0.1,0.6-0.2,0.9-0.4
		c0.5-0.2,0.9-0.4,1.5-0.6c7.7-2.6,13.7-4.8,20.6-10.6C84.1,46.7,87.2,40.1,87.3,32.1z"/>
	<path fill="#BFBFBF" d="M14.2,40.8c-0.2-0.8-0.4-0.8-1-0.9c-2.1-0.1-6.5-0.3-9.1-0.6l0.1,0.4c0.3,1.4,0.3,1.4,0.6,2.4
		c0.1,0.4,0.3,1.1,0.6,2.2c2.3,8.6,8,14.6,17.6,18.3c2.9,1.1,11.7,2.4,17.4,3.1c-3.3-1.6-6.8-3.3-10-5.2C22,55.7,16.6,49,14.2,40.8z
		"/>
	<path fill="#BFBFBF" d="M91.1,40.1c-0.6,0-0.8,0.1-1,0.9c-2.4,8.2-7.8,14.8-16.1,19.7c-2.9,1.7-6.3,3.1-9.5,4.4
		c-0.5,0.2-1,0.4-1.4,0.6c6.1-0.6,15.4-1.7,18.4-2.9c9.6-3.7,15.4-9.7,17.6-18.3c0.3-1.1,0.5-1.8,0.6-2.2c0.2-0.9,0.2-0.9,0.5-2.3
		l0.1-0.4C97.6,39.8,93.2,40,91.1,40.1z"/>
	<path fill="#BFBFBF" d="M37.3,29.3c-1.4-0.6-2.8-1.1-4.2-1.6c-0.9-0.3-1.8-0.7-2.6-1c-1.7-0.7-2.9-1.1-4-1.5
		c-2.8-1-3.9-1.4-7.2-3.7c-0.7,2.3-1.8,6.9-1.8,10.9c0.1,8,3.2,14.5,9.7,19.9c6.9,5.8,12.9,8.1,20.6,10.6c0.6,0.2,1,0.4,1.5,0.6
		c0.3,0.1,0.6,0.2,0.9,0.4c0-0.2,0-0.4,0-0.6c0.1-5,0.2-16.6-0.8-20.5C48,36.5,43.9,32,37.3,29.3z"/>
	<path fill="#BFBFBF" d="M64.5,24.8C63.3,19.9,60,9.4,52.7,3c-3,3.5-9.6,12.7-11.3,21.6c0.4,0.2,0.7,0.5,1.1,0.7
		c2.1,1.3,4.1,2.6,6.1,4.8c1.8,2,3.3,4.5,4.4,7.2c0.8-2.1,2.1-4.8,4.2-7C59.5,28,61.7,26.5,64.5,24.8z"/>
</g>
<g>
	<path d="M137,44.7h-2.8V33.3h-12.8v11.4h-2.8V20.5h2.8v10.3h12.8V20.5h2.8V44.7z"/>
	<path d="M150.9,45.1c-2.7,0-4.8-0.8-6.4-2.5c-1.6-1.6-2.3-3.9-2.3-6.8c0-2.9,0.7-5.3,2.2-7c1.4-1.7,3.4-2.6,5.8-2.6
		c2.3,0,4.1,0.8,5.4,2.2c1.3,1.5,2,3.5,2,5.9v1.7h-12.5c0.1,2.1,0.6,3.8,1.6,4.9c1,1.1,2.5,1.7,4.3,1.7c2,0,3.9-0.4,5.8-1.2v2.5
		c-1,0.4-1.9,0.7-2.8,0.9C153.2,45,152.1,45.1,150.9,45.1z M150.2,28.5c-1.5,0-2.6,0.5-3.5,1.4c-0.9,1-1.4,2.3-1.5,4h9.5
		c0-1.7-0.4-3.1-1.2-4C152.7,29,151.6,28.5,150.2,28.5z"/>
	<path d="M173.5,44.7l-0.5-2.6h-0.1c-0.9,1.1-1.8,1.9-2.7,2.3c-0.9,0.4-2,0.6-3.4,0.6c-1.8,0-3.2-0.5-4.2-1.4c-1-0.9-1.5-2.3-1.5-4
		c0-3.7,2.9-5.6,8.8-5.8l3.1-0.1v-1.1c0-1.4-0.3-2.5-0.9-3.2c-0.6-0.7-1.6-1-2.9-1c-1.5,0-3.2,0.5-5.1,1.4l-0.8-2.1
		c0.9-0.5,1.9-0.9,2.9-1.1c1.1-0.3,2.1-0.4,3.2-0.4c2.2,0,3.8,0.5,4.8,1.4c1,1,1.6,2.5,1.6,4.6v12.4H173.5z M167.3,42.8
		c1.7,0,3.1-0.5,4-1.4c1-0.9,1.5-2.3,1.5-4v-1.6l-2.8,0.1c-2.2,0.1-3.8,0.4-4.7,1c-1,0.6-1.5,1.5-1.5,2.8c0,1,0.3,1.8,0.9,2.3
		C165.3,42.5,166.2,42.8,167.3,42.8z"/>
	<path d="M184,44.7h-2.8V18.9h2.8V44.7z"/>
	<path d="M195.7,42.8c0.5,0,1,0,1.4-0.1c0.5-0.1,0.8-0.1,1.1-0.2v2.1c-0.3,0.1-0.7,0.3-1.3,0.4c-0.6,0.1-1.1,0.1-1.6,0.1
		c-3.5,0-5.3-1.9-5.3-5.6V28.7h-2.6v-1.3l2.6-1.1l1.2-3.9h1.6v4.2h5.3v2.1h-5.3v10.7c0,1.1,0.3,1.9,0.8,2.5S194.8,42.8,195.7,42.8z"
		/>
	<path d="M214.3,44.7V33c0-1.5-0.3-2.6-1-3.3s-1.7-1.1-3.2-1.1c-1.9,0-3.3,0.5-4.2,1.6c-0.9,1-1.3,2.7-1.3,5.1v9.5h-2.8V18.9h2.8
		v7.8c0,0.9,0,1.7-0.1,2.3h0.2c0.5-0.9,1.3-1.6,2.3-2.1c1-0.5,2.1-0.8,3.4-0.8c2.2,0,3.9,0.5,5,1.6c1.1,1.1,1.7,2.7,1.7,5v11.9
		H214.3z"/>
	<path d="M245.6,38.3c0,2.1-0.8,3.8-2.3,5s-3.7,1.8-6.3,1.8c-2.9,0-5.1-0.4-6.6-1.1v-2.7c1,0.4,2.1,0.8,3.3,1s2.3,0.4,3.5,0.4
		c1.9,0,3.3-0.4,4.2-1.1c1-0.7,1.4-1.7,1.4-3c0-0.8-0.2-1.5-0.5-2.1c-0.3-0.5-0.9-1-1.7-1.5c-0.8-0.5-2-1-3.6-1.5
		c-2.3-0.8-3.9-1.8-4.8-2.9c-1-1.1-1.5-2.6-1.5-4.3c0-1.9,0.7-3.4,2.1-4.5s3.3-1.7,5.6-1.7c2.4,0,4.6,0.4,6.7,1.3l-0.9,2.5
		c-2-0.8-4-1.3-5.8-1.3c-1.5,0-2.7,0.3-3.5,1s-1.3,1.5-1.3,2.7c0,0.8,0.2,1.5,0.5,2.1c0.3,0.5,0.8,1,1.6,1.5
		c0.7,0.4,1.9,0.9,3.4,1.5c2.5,0.9,4.3,1.9,5.3,2.9C245.1,35.3,245.6,36.6,245.6,38.3z"/>
	<path d="M261.4,44.7l-0.5-2.6h-0.1c-0.9,1.1-1.8,1.9-2.7,2.3c-0.9,0.4-2,0.6-3.4,0.6c-1.8,0-3.2-0.5-4.2-1.4c-1-0.9-1.5-2.3-1.5-4
		c0-3.7,2.9-5.6,8.8-5.8l3.1-0.1v-1.1c0-1.4-0.3-2.5-0.9-3.2c-0.6-0.7-1.6-1-2.9-1c-1.5,0-3.2,0.5-5.1,1.4l-0.8-2.1
		c0.9-0.5,1.9-0.9,2.9-1.1c1.1-0.3,2.1-0.4,3.2-0.4c2.2,0,3.8,0.5,4.8,1.4c1,1,1.6,2.5,1.6,4.6v12.4H261.4z M255.1,42.8
		c1.7,0,3.1-0.5,4-1.4c1-0.9,1.5-2.3,1.5-4v-1.6l-2.8,0.1c-2.2,0.1-3.8,0.4-4.7,1c-1,0.6-1.5,1.5-1.5,2.8c0,1,0.3,1.8,0.9,2.3
		C253.2,42.5,254,42.8,255.1,42.8z"/>
	<path d="M292.3,44.7V32.9c0-1.5-0.3-2.5-0.9-3.3c-0.6-0.7-1.6-1.1-2.9-1.1c-1.7,0-3,0.5-3.8,1.5s-1.2,2.5-1.2,4.5v10.2h-2.8V32.9
		c0-1.5-0.3-2.5-0.9-3.3c-0.6-0.7-1.6-1.1-2.9-1.1c-1.7,0-3,0.5-3.8,1.6c-0.8,1-1.2,2.7-1.2,5.1v9.5h-2.8V26.6h2.2l0.4,2.5h0.1
		c0.5-0.9,1.3-1.6,2.2-2.1c0.9-0.5,2-0.7,3.2-0.7c2.8,0,4.7,1,5.6,3.1h0.1c0.5-1,1.3-1.7,2.4-2.3s2.2-0.8,3.5-0.8
		c2.1,0,3.6,0.5,4.6,1.6c1,1.1,1.5,2.7,1.5,5.1v11.9H292.3z"/>
	<path d="M303.3,26.6v11.8c0,1.5,0.3,2.6,1,3.3s1.7,1.1,3.2,1.1c1.9,0,3.3-0.5,4.2-1.6c0.9-1,1.3-2.7,1.3-5.1v-9.6h2.8v18.2h-2.3
		l-0.4-2.4h-0.1c-0.6,0.9-1.3,1.6-2.3,2.1c-1,0.5-2.1,0.7-3.4,0.7c-2.2,0-3.9-0.5-5-1.6c-1.1-1.1-1.7-2.7-1.7-5V26.6H303.3z"/>
	<path d="M329.9,26.2c0.8,0,1.5,0.1,2.2,0.2l-0.4,2.6c-0.8-0.2-1.4-0.2-2-0.2c-1.5,0-2.7,0.6-3.8,1.8c-1,1.2-1.6,2.7-1.6,4.5v9.8
		h-2.8V26.6h2.3l0.3,3.4h0.1c0.7-1.2,1.5-2.1,2.4-2.7S328.7,26.2,329.9,26.2z"/>
	<path d="M346.6,44.7l-0.5-2.6H346c-0.9,1.1-1.8,1.9-2.7,2.3c-0.9,0.4-2,0.6-3.4,0.6c-1.8,0-3.2-0.5-4.2-1.4c-1-0.9-1.5-2.3-1.5-4
		c0-3.7,2.9-5.6,8.8-5.8l3.1-0.1v-1.1c0-1.4-0.3-2.5-0.9-3.2c-0.6-0.7-1.6-1-2.9-1c-1.5,0-3.2,0.5-5.1,1.4l-0.8-2.1
		c0.9-0.5,1.9-0.9,2.9-1.1c1.1-0.3,2.1-0.4,3.2-0.4c2.2,0,3.8,0.5,4.8,1.4c1,1,1.6,2.5,1.6,4.6v12.4H346.6z M340.4,42.8
		c1.7,0,3.1-0.5,4-1.4c1-0.9,1.5-2.3,1.5-4v-1.6l-2.8,0.1c-2.2,0.1-3.8,0.4-4.7,1c-1,0.6-1.5,1.5-1.5,2.8c0,1,0.3,1.8,0.9,2.3
		C338.5,42.5,339.3,42.8,340.4,42.8z"/>
	<path d="M354.1,21.6c0-0.6,0.2-1.1,0.5-1.4c0.3-0.3,0.7-0.4,1.2-0.4c0.4,0,0.8,0.1,1.1,0.4s0.5,0.8,0.5,1.4s-0.2,1.1-0.5,1.4
		c-0.3,0.3-0.7,0.5-1.1,0.5c-0.5,0-0.9-0.2-1.2-0.5C354.3,22.7,354.1,22.2,354.1,21.6z M357.1,44.7h-2.8V26.6h2.8V44.7z"/>
</g>
</svg>
