<?xml version="1.0" encoding="utf-8"?>
<!-- Generator: Adobe Illustrator 17.1.0, SVG Export Plug-In . SVG Version: 6.00 Build 0)  -->
<!DOCTYPE svg PUBLIC "-//W3C//DTD SVG 1.1//EN" "http://www.w3.org/Graphics/SVG/1.1/DTD/svg11.dtd">
<svg version="1.1" id="Layer_1" xmlns="http://www.w3.org/2000/svg" xmlns:xlink="http://www.w3.org/1999/xlink" x="0px" y="0px"
	 viewBox="0 227 365 258" enable-background="new 0 227 365 258" xml:space="preserve">
<g>
	<path fill="#232323" d="M303.6,347c0-13.9-3.5-29.6-6.3-37.9c-11.8,8-15.3,9.4-25,12.9c-3.5,1.4-8,2.8-13.9,5.2
		c-3.1,1-6.3,2.4-9.4,3.5c-4.9,1.7-9.7,3.8-14.3,5.6c-23,9.4-37.2,25-42.4,46.6c-3.5,13.9-2.8,54.2-2.8,71.3c0,0.7,0,1.4,0,2.1
		c1-0.3,2.1-0.7,3.1-1.4c1.7-0.7,3.1-1.4,5.2-2.1c26.8-9,47.6-16.7,71.6-36.9C292.4,397.7,303.2,374.8,303.6,347z"/>
	<path fill="#232323" d="M49.4,377.2c-0.7-2.8-1.4-2.8-3.5-3.1c-7.3-0.3-22.6-1-31.6-2.1l0.3,1.4c1,4.9,1,4.9,2.1,8.3
		c0.3,1.4,1,3.8,2.1,7.7c8,29.9,27.8,50.8,61.2,63.6c10.1,3.8,40.7,8.3,60.5,10.8c-11.5-5.6-23.6-11.5-34.8-18.1
		C76.5,429,57.7,405.7,49.4,377.2z"/>
	<path fill="#232323" d="M316.8,374.8c-2.1,0-2.8,0.3-3.5,3.1c-8.3,28.5-27.1,51.5-56,68.5c-10.1,5.9-21.9,10.8-33,15.3
		c-1.7,0.7-3.5,1.4-4.9,2.1c21.2-2.1,53.6-5.9,64-10.1c33.4-12.9,53.6-33.7,61.2-63.6c1-3.8,1.7-6.3,2.1-7.7c0.7-3.1,0.7-3.1,1.7-8
		l0.3-1.4C339.4,373.7,324.1,374.4,316.8,374.8z"/>
	<path fill="#232323" d="M129.7,337.2c-4.9-2.1-9.7-3.8-14.6-5.6c-3.1-1-6.3-2.4-9-3.5c-5.9-2.4-10.1-3.8-13.9-5.2
		c-9.7-3.5-13.6-4.9-25-12.9c-2.4,8-6.3,24-6.3,37.9c0.3,27.8,11.1,50.4,33.7,69.2c24,20.2,44.9,28.2,71.6,36.9
		c2.1,0.7,3.5,1.4,5.2,2.1c1,0.3,2.1,0.7,3.1,1.4c0-0.7,0-1.4,0-2.1c0.3-17.4,0.7-57.7-2.8-71.3
		C166.9,362.3,152.7,346.6,129.7,337.2z"/>
	<path fill="#232323" d="M224.3,321.6c-4.2-17-15.6-53.6-41-75.8c-10.4,12.2-33.4,44.2-39.3,75.1c1.4,0.7,2.4,1.7,3.8,2.4
		c7.3,4.5,14.3,9,21.2,16.7c6.3,7,11.5,15.6,15.3,25c2.8-7.3,7.3-16.7,14.6-24.3C206.9,332.7,214.6,327.5,224.3,321.6z"/>
</g>
</svg>
