<?xml version="1.0" encoding="utf-8"?>
<!-- Generator: Adobe Illustrator 18.1.0, SVG Export Plug-In . SVG Version: 6.00 Build 0)  -->
<svg version="1.1" id="Layer_1" xmlns="http://www.w3.org/2000/svg" xmlns:xlink="http://www.w3.org/1999/xlink" x="0px" y="0px"
	 viewBox="0 0 277 275" enable-background="new 0 0 277 275" xml:space="preserve">
<g>
	<path fill="#6E6E6E" d="M138.5,6C65.8,6,6.6,65.2,6.6,137.9s59.2,131.9,131.9,131.9c72.7,0,131.9-59.2,131.9-131.9S211.2,6,138.5,6
		z M138.5,259.3c-66.9,0-121.4-54.5-121.4-121.4S71.6,16.5,138.5,16.5c66.9,0,121.4,54.5,121.4,121.4
		C259.9,204.8,205.4,259.3,138.5,259.3z"/>
	<path fill="#6E6E6E" d="M129.9,107.6c-0.2-0.2-0.3-0.4-0.5-0.6c-0.1,0.3-0.1,0.5-0.1,0.7c-1.4,12.6-2.8,25.2-4.3,37.8
		c-0.2,1.8-0.5,3.6-0.5,5.4c0.3,0.2,0.6,0,0.9-0.1c4.9-1.5,26.2-7.7,31.2-9.2c0.3-0.1,0.6-0.1,0.8-0.4c-1-1.5-2.2-2.9-3.4-4.2
		C145.9,127.2,137.9,117.4,129.9,107.6z"/>
	<path fill="#6E6E6E" d="M229.6,173.4c-0.4-2.1-19.2-113.8-19.8-117.7c-0.1-0.7-0.3-0.8-0.9-0.8c-9.2-0.4-82.7-3.6-96.4-4.2
		c-0.4,0-0.8,0-1.2,0.3c-1.1,0.8-2.2,1.7-3.4,2.5c-9.8,7.1-69.7,50.2-74.7,53.8c-0.4,0.3-0.6,0.6-0.3,0.9c0.1,0.2,0.1,0.4,0.2,0.5
		c1.1,2.5,46.1,107.1,47.3,110c0.2,0.5,0.4,0.7,0.9,0.8c1.6,0.3,79.8,17.5,85.1,18.7c0.6,0.1,1,0,1.4-0.4c5.5-5.6,56.4-57.3,61.2-62
		C229.7,175,229.7,174.3,229.6,173.4z M209.7,175.4c-6.5,1.8-12.9,3.5-19.3,5.3c-0.7,0.2-1.1,0-1.5-0.5
		c-6.1-7.8-12.3-15.6-18.4-23.5c-0.4-0.6-0.8-0.7-1.5-0.5c-7.7,2.3-15.3,4.5-23,6.8c-0.1,0-0.1,0-0.2,0.1c-7.7,2.3-15.3,4.5-23,6.8
		c-0.7,0.2-0.9,0.6-1,1.3c-0.9,9.9-1.9,19.8-2.8,29.7c-0.1,0.7-0.3,1-1,1.2c-6.4,2-12.8,4-19.1,6c-0.3,0.1-0.5,0.2-0.8,0.2
		c-0.2-0.3,0-0.6,0-0.9c6.4-46.8,12.8-93.6,19.2-140.3c0-0.2,0.1-0.4,0.1-0.6c0,0,0,0.1,0.1,0.1c0,0,0-0.1,0-0.1
		c0.1,0.2,0.3,0.3,0.4,0.4c30.7,35.8,61.5,71.7,92.2,107.5c0.2,0.2,0.5,0.4,0.5,0.8C210.2,175.2,210,175.3,209.7,175.4z"/>
	<path fill="#6E6E6E" d="M138.5,22.6C75,22.6,23.2,74.3,23.2,137.9S75,253.1,138.5,253.1c63.6,0,115.3-51.7,115.3-115.3
		S202,22.6,138.5,22.6z M138.5,250.3c-62,0-112.4-50.4-112.4-112.4c0-62,50.4-112.4,112.4-112.4c62,0,112.4,50.4,112.4,112.4
		C250.9,199.8,200.5,250.3,138.5,250.3z"/>
</g>
</svg>
